<?xml version="1.0" encoding="UTF-8" standalone="no"?><svg xmlns="http://www.w3.org/2000/svg" xmlns:xlink="http://www.w3.org/1999/xlink" contentStyleType="text/css" height="473px" preserveAspectRatio="none" style="width:1094px;height:473px;background:#FFFFFF;" version="1.1" viewBox="0 0 1094 473" width="1094px" zoomAndPan="magnify"><defs/><g><!--MD5=[85695becbf08db34325d1494105c09dc]
class PersistentObjects--><g id="elem_PersistentObjects"><rect codeLine="1" fill="#F1F1F1" height="162.0781" id="PersistentObjects" rx="2.5" ry="2.5" style="stroke:#181818;stroke-width:0.5;" width="245" x="259" y="180"/><ellipse cx="315.75" cy="196" fill="#B4A7E5" rx="11" ry="11" style="stroke:#181818;stroke-width:1.0;"/><path d="M311.6719,191.7656 L311.6719,189.6094 L319.0625,189.6094 L319.0625,191.7656 L316.5938,191.7656 L316.5938,199.8438 L319.0625,199.8438 L319.0625,202 L311.6719,202 L311.6719,199.8438 L314.1406,199.8438 L314.1406,191.7656 L311.6719,191.7656 Z " fill="#000000"/><text fill="#000000" font-family="sans-serif" font-size="14" font-style="italic" lengthAdjust="spacing" textLength="123" x="336.25" y="200.8467">PersistentObjects</text><line style="stroke:#181818;stroke-width:0.5;" x1="260" x2="503" y1="212" y2="212"/><line style="stroke:#181818;stroke-width:0.5;" x1="260" x2="503" y1="220" y2="220"/><text fill="#000000" font-family="sans-serif" font-size="14" lengthAdjust="spacing" textLength="201" x="265" y="236.9951">void creteSession(long, long)</text><text fill="#000000" font-family="sans-serif" font-size="14" lengthAdjust="spacing" textLength="161" x="265" y="253.292">void store(long, Object)</text><text fill="#000000" font-family="sans-serif" font-size="14" lengthAdjust="spacing" textLength="194" x="265" y="269.5889">Object load(long, Class&lt;?&gt;)</text><text fill="#000000" font-family="sans-serif" font-size="14" lengthAdjust="spacing" textLength="217" x="265" y="285.8857">Object remove(long, Class&lt;?&gt;)</text><text fill="#000000" font-family="sans-serif" font-size="14" lengthAdjust="spacing" textLength="179" x="265" y="302.1826">void destroySession(long)</text><text fill="#000000" font-family="sans-serif" font-size="14" lengthAdjust="spacing" textLength="233" x="265" y="318.4795">void addListener(SessionListener)</text><text fill="#000000" font-family="sans-serif" font-size="14" lengthAdjust="spacing" textLength="204" x="265" y="334.7764">void removeListener(Listener)</text></g><!--MD5=[65ff2604d55fa51d68d0133fb67abd03]
class PersistentObjectsImpl--><g id="elem_PersistentObjectsImpl"><rect codeLine="11" fill="#F1F1F1" height="113.1875" id="PersistentObjectsImpl" rx="2.5" ry="2.5" style="stroke:#181818;stroke-width:0.5;" width="264" x="489.5" y="7"/><ellipse cx="541.75" cy="23" fill="#ADD1B2" rx="11" ry="11" style="stroke:#181818;stroke-width:1.0;"/><path d="M544.7188,28.6406 Q544.1406,28.9375 543.5,29.0781 Q542.8594,29.2344 542.1563,29.2344 Q539.6563,29.2344 538.3281,27.5938 Q537.0156,25.9375 537.0156,22.8125 Q537.0156,19.6875 538.3281,18.0313 Q539.6563,16.375 542.1563,16.375 Q542.8594,16.375 543.5,16.5313 Q544.1563,16.6875 544.7188,16.9844 L544.7188,19.7031 Q544.0938,19.125 543.5,18.8594 Q542.9063,18.5781 542.2813,18.5781 Q540.9375,18.5781 540.25,19.6563 Q539.5625,20.7188 539.5625,22.8125 Q539.5625,24.9063 540.25,25.9844 Q540.9375,27.0469 542.2813,27.0469 Q542.9063,27.0469 543.5,26.7813 Q544.0938,26.5 544.7188,25.9219 L544.7188,28.6406 Z " fill="#000000"/><text fill="#000000" font-family="sans-serif" font-size="14" lengthAdjust="spacing" textLength="151" x="562.25" y="27.8467">PersistentObjectsImpl</text><line style="stroke:#181818;stroke-width:0.5;" x1="490.5" x2="752.5" y1="39" y2="39"/><text fill="#000000" font-family="sans-serif" font-size="14" lengthAdjust="spacing" textLength="252" x="495.5" y="55.9951">ListenersList: List&lt;SessionListener&gt;</text><text fill="#000000" font-family="sans-serif" font-size="14" lengthAdjust="spacing" textLength="150" x="495.5" y="72.292">Mapper: ClassMapper</text><text fill="#000000" font-family="sans-serif" font-size="14" lengthAdjust="spacing" textLength="119" x="495.5" y="88.5889">Session: Session</text><text fill="#000000" font-family="sans-serif" font-size="14" lengthAdjust="spacing" textLength="194" x="495.5" y="104.8857">Repository: ClassRepository</text><line style="stroke:#181818;stroke-width:0.5;" x1="490.5" x2="752.5" y1="112.1875" y2="112.1875"/></g><!--MD5=[6c0022bb18e7d788a74eefff5862ef2c]
class SessionListener--><g id="elem_SessionListener"><rect codeLine="18" fill="#F1F1F1" height="113.1875" id="SessionListener" rx="2.5" ry="2.5" style="stroke:#181818;stroke-width:0.5;" width="217" x="7" y="204.5"/><ellipse cx="56.25" cy="220.5" fill="#B4A7E5" rx="11" ry="11" style="stroke:#181818;stroke-width:1.0;"/><path d="M52.1719,216.2656 L52.1719,214.1094 L59.5625,214.1094 L59.5625,216.2656 L57.0938,216.2656 L57.0938,224.3438 L59.5625,224.3438 L59.5625,226.5 L52.1719,226.5 L52.1719,224.3438 L54.6406,224.3438 L54.6406,216.2656 L52.1719,216.2656 Z " fill="#000000"/><text fill="#000000" font-family="sans-serif" font-size="14" font-style="italic" lengthAdjust="spacing" textLength="110" x="76.75" y="225.3467">SessionListener</text><line style="stroke:#181818;stroke-width:0.5;" x1="8" x2="223" y1="236.5" y2="236.5"/><line style="stroke:#181818;stroke-width:0.5;" x1="8" x2="223" y1="244.5" y2="244.5"/><text fill="#000000" font-family="sans-serif" font-size="14" lengthAdjust="spacing" textLength="174" x="13" y="261.4951">void sessionClosed(long)</text><text fill="#000000" font-family="sans-serif" font-size="14" lengthAdjust="spacing" textLength="197" x="13" y="277.792">void sessionStillClosed(long)</text><text fill="#000000" font-family="sans-serif" font-size="14" lengthAdjust="spacing" textLength="182" x="13" y="294.0889">void sessionOpened(long)</text><text fill="#000000" font-family="sans-serif" font-size="14" lengthAdjust="spacing" textLength="205" x="13" y="310.3857">void sessionStillOpened(long)</text></g><!--MD5=[4a8a8778060f7284bbf019e3f5e2fc78]
class LoggerSessionListener--><g id="elem_LoggerSessionListener"><rect codeLine="25" fill="#F1F1F1" height="64.2969" id="LoggerSessionListener" rx="2.5" ry="2.5" style="stroke:#181818;stroke-width:0.5;" width="190" x="20.5" y="31.5"/><ellipse cx="35.5" cy="47.5" fill="#ADD1B2" rx="11" ry="11" style="stroke:#181818;stroke-width:1.0;"/><path d="M38.4688,53.1406 Q37.8906,53.4375 37.25,53.5781 Q36.6094,53.7344 35.9063,53.7344 Q33.4063,53.7344 32.0781,52.0938 Q30.7656,50.4375 30.7656,47.3125 Q30.7656,44.1875 32.0781,42.5313 Q33.4063,40.875 35.9063,40.875 Q36.6094,40.875 37.25,41.0313 Q37.9063,41.1875 38.4688,41.4844 L38.4688,44.2031 Q37.8438,43.625 37.25,43.3594 Q36.6563,43.0781 36.0313,43.0781 Q34.6875,43.0781 34,44.1563 Q33.3125,45.2188 33.3125,47.3125 Q33.3125,49.4063 34,50.4844 Q34.6875,51.5469 36.0313,51.5469 Q36.6563,51.5469 37.25,51.2813 Q37.8438,51 38.4688,50.4219 L38.4688,53.1406 Z " fill="#000000"/><text fill="#000000" font-family="sans-serif" font-size="14" lengthAdjust="spacing" textLength="158" x="49.5" y="52.3467">LoggerSessionListener</text><line style="stroke:#181818;stroke-width:0.5;" x1="21.5" x2="209.5" y1="63.5" y2="63.5"/><text fill="#000000" font-family="sans-serif" font-size="14" lengthAdjust="spacing" textLength="105" x="26.5" y="80.4951">Logger: Logger</text><line style="stroke:#181818;stroke-width:0.5;" x1="21.5" x2="209.5" y1="87.7969" y2="87.7969"/></g><!--MD5=[2ca1536628238a7dc78c5d90808014f9]
class Session--><g id="elem_Session"><rect codeLine="29" fill="#F1F1F1" height="129.4844" id="Session" rx="2.5" ry="2.5" style="stroke:#181818;stroke-width:0.5;" width="164" x="539.5" y="196.5"/><ellipse cx="589.75" cy="212.5" fill="#ADD1B2" rx="11" ry="11" style="stroke:#181818;stroke-width:1.0;"/><path d="M592.7188,218.1406 Q592.1406,218.4375 591.5,218.5781 Q590.8594,218.7344 590.1563,218.7344 Q587.6563,218.7344 586.3281,217.0938 Q585.0156,215.4375 585.0156,212.3125 Q585.0156,209.1875 586.3281,207.5313 Q587.6563,205.875 590.1563,205.875 Q590.8594,205.875 591.5,206.0313 Q592.1563,206.1875 592.7188,206.4844 L592.7188,209.2031 Q592.0938,208.625 591.5,208.3594 Q590.9063,208.0781 590.2813,208.0781 Q588.9375,208.0781 588.25,209.1563 Q587.5625,210.2188 587.5625,212.3125 Q587.5625,214.4063 588.25,215.4844 Q588.9375,216.5469 590.2813,216.5469 Q590.9063,216.5469 591.5,216.2813 Q592.0938,216 592.7188,215.4219 L592.7188,218.1406 Z " fill="#000000"/><text fill="#000000" font-family="sans-serif" font-size="14" lengthAdjust="spacing" textLength="55" x="610.25" y="217.3467">Session</text><line style="stroke:#181818;stroke-width:0.5;" x1="540.5" x2="702.5" y1="228.5" y2="228.5"/><text fill="#000000" font-family="sans-serif" font-size="14" lengthAdjust="spacing" textLength="74" x="545.5" y="245.4951">Key: String</text><text fill="#000000" font-family="sans-serif" font-size="14" lengthAdjust="spacing" textLength="83" x="545.5" y="261.792">Timeout: int</text><text fill="#000000" font-family="sans-serif" font-size="14" lengthAdjust="spacing" textLength="152" x="545.5" y="278.0889">Status: SessionStatus</text><line style="stroke:#181818;stroke-width:0.5;" x1="540.5" x2="702.5" y1="285.3906" y2="285.3906"/><text fill="#000000" font-family="sans-serif" font-size="14" lengthAdjust="spacing" textLength="79" x="545.5" y="302.3857">void close()</text><text fill="#000000" font-family="sans-serif" font-size="14" lengthAdjust="spacing" textLength="78" x="545.5" y="318.6826">void open()</text></g><!--MD5=[c13df6124ea724d9a37f36fea6bdb59c]
class SessionStatus--><g id="elem_SessionStatus"><rect codeLine="37" fill="#F1F1F1" height="64.2969" id="SessionStatus" rx="2.5" ry="2.5" style="stroke:#181818;stroke-width:0.5;" width="131" x="556" y="402"/><ellipse cx="571" cy="418" fill="#EB937F" rx="11" ry="11" style="stroke:#181818;stroke-width:1.0;"/><path d="M575.1094,424 L567.3906,424 L567.3906,411.6094 L575.1094,411.6094 L575.1094,413.7656 L569.8438,413.7656 L569.8438,416.4375 L574.6094,416.4375 L574.6094,418.5938 L569.8438,418.5938 L569.8438,421.8438 L575.1094,421.8438 L575.1094,424 Z " fill="#000000"/><text fill="#000000" font-family="sans-serif" font-size="14" lengthAdjust="spacing" textLength="99" x="585" y="422.8467">SessionStatus</text><line style="stroke:#181818;stroke-width:0.5;" x1="557" x2="686" y1="434" y2="434"/><text fill="#000000" font-family="sans-serif" font-size="14" lengthAdjust="spacing" textLength="104" x="562" y="450.9951">OPEN, CLOSED</text><line style="stroke:#181818;stroke-width:0.5;" x1="557" x2="686" y1="458.2969" y2="458.2969"/></g><!--MD5=[d6d8278a887994824121308606d0deb4]
class ClassMapper--><g id="elem_ClassMapper"><rect codeLine="41" fill="#F1F1F1" height="80.5938" id="ClassMapper" rx="2.5" ry="2.5" style="stroke:#181818;stroke-width:0.5;" width="166" x="738.5" y="220.5"/><ellipse cx="773.75" cy="236.5" fill="#ADD1B2" rx="11" ry="11" style="stroke:#181818;stroke-width:1.0;"/><path d="M776.7188,242.1406 Q776.1406,242.4375 775.5,242.5781 Q774.8594,242.7344 774.1563,242.7344 Q771.6563,242.7344 770.3281,241.0938 Q769.0156,239.4375 769.0156,236.3125 Q769.0156,233.1875 770.3281,231.5313 Q771.6563,229.875 774.1563,229.875 Q774.8594,229.875 775.5,230.0313 Q776.1563,230.1875 776.7188,230.4844 L776.7188,233.2031 Q776.0938,232.625 775.5,232.3594 Q774.9063,232.0781 774.2813,232.0781 Q772.9375,232.0781 772.25,233.1563 Q771.5625,234.2188 771.5625,236.3125 Q771.5625,238.4063 772.25,239.4844 Q772.9375,240.5469 774.2813,240.5469 Q774.9063,240.5469 775.5,240.2813 Q776.0938,240 776.7188,239.4219 L776.7188,242.1406 Z " fill="#000000"/><text fill="#000000" font-family="sans-serif" font-size="14" lengthAdjust="spacing" textLength="89" x="792.25" y="241.3467">ClassMapper</text><line style="stroke:#181818;stroke-width:0.5;" x1="739.5" x2="903.5" y1="252.5" y2="252.5"/><line style="stroke:#181818;stroke-width:0.5;" x1="739.5" x2="903.5" y1="260.5" y2="260.5"/><text fill="#000000" font-family="sans-serif" font-size="14" lengthAdjust="spacing" textLength="154" x="744.5" y="277.4951">toObject(String, Class)</text><text fill="#000000" font-family="sans-serif" font-size="14" lengthAdjust="spacing" textLength="98" x="744.5" y="293.792">toJson(Object)</text></g><!--MD5=[baaad5f86e8bdb5334796e9a900ffbc4]
class ClassRepository--><g id="elem_ClassRepository"><rect codeLine="46" fill="#F1F1F1" height="80.5938" id="ClassRepository" rx="2.5" ry="2.5" style="stroke:#181818;stroke-width:0.5;" width="148" x="939.5" y="220.5"/><ellipse cx="956.75" cy="236.5" fill="#ADD1B2" rx="11" ry="11" style="stroke:#181818;stroke-width:1.0;"/><path d="M959.7188,242.1406 Q959.1406,242.4375 958.5,242.5781 Q957.8594,242.7344 957.1563,242.7344 Q954.6563,242.7344 953.3281,241.0938 Q952.0156,239.4375 952.0156,236.3125 Q952.0156,233.1875 953.3281,231.5313 Q954.6563,229.875 957.1563,229.875 Q957.8594,229.875 958.5,230.0313 Q959.1563,230.1875 959.7188,230.4844 L959.7188,233.2031 Q959.0938,232.625 958.5,232.3594 Q957.9063,232.0781 957.2813,232.0781 Q955.9375,232.0781 955.25,233.1563 Q954.5625,234.2188 954.5625,236.3125 Q954.5625,238.4063 955.25,239.4844 Q955.9375,240.5469 957.2813,240.5469 Q957.9063,240.5469 958.5,240.2813 Q959.0938,240 959.7188,239.4219 L959.7188,242.1406 Z " fill="#000000"/><text fill="#000000" font-family="sans-serif" font-size="14" lengthAdjust="spacing" textLength="111" x="971.25" y="241.3467">ClassRepository</text><line style="stroke:#181818;stroke-width:0.5;" x1="940.5" x2="1086.5" y1="252.5" y2="252.5"/><line style="stroke:#181818;stroke-width:0.5;" x1="940.5" x2="1086.5" y1="260.5" y2="260.5"/><text fill="#000000" font-family="sans-serif" font-size="14" lengthAdjust="spacing" textLength="117" x="945.5" y="277.4951">findByKey(String)</text><text fill="#000000" font-family="sans-serif" font-size="14" lengthAdjust="spacing" textLength="136" x="945.5" y="293.792">deleteByKey(String)</text></g><!--MD5=[c5a04c9ea44de259af719a40852905aa]
class CrudRepository--><g id="elem_CrudRepository"><rect codeLine="51" fill="#F1F1F1" height="64.2969" id="CrudRepository" rx="2.5" ry="2.5" style="stroke:#181818;stroke-width:0.5;" width="139" x="944" y="402"/><ellipse cx="959" cy="418" fill="#B4A7E5" rx="11" ry="11" style="stroke:#181818;stroke-width:1.0;"/><path d="M954.9219,413.7656 L954.9219,411.6094 L962.3125,411.6094 L962.3125,413.7656 L959.8438,413.7656 L959.8438,421.8438 L962.3125,421.8438 L962.3125,424 L954.9219,424 L954.9219,421.8438 L957.3906,421.8438 L957.3906,413.7656 L954.9219,413.7656 Z " fill="#000000"/><text fill="#000000" font-family="sans-serif" font-size="14" font-style="italic" lengthAdjust="spacing" textLength="107" x="973" y="422.8467">CrudRepository</text><line style="stroke:#181818;stroke-width:0.5;" x1="945" x2="1082" y1="434" y2="434"/><line style="stroke:#181818;stroke-width:0.5;" x1="945" x2="1082" y1="442" y2="442"/><text fill="#000000" font-family="sans-serif" font-size="14" lengthAdjust="spacing" textLength="80" x="950" y="458.9951">save(Entity)</text></g><!--MD5=[98092610d9c3b589ac71269f93401f04]
link LoggerSessionListener to SessionListener--><g id="link_LoggerSessionListener_SessionListener"><path codeLine="55" d="M115.5,95.91 C115.5,119.7 115.5,153.42 115.5,184.11 " fill="none" id="LoggerSessionListener-to-SessionListener" style="stroke:#181818;stroke-width:1.0;"/><polygon fill="none" points="122.5,184.21,115.5,204.21,108.5,184.21,122.5,184.21" style="stroke:#181818;stroke-width:1.0;"/></g><!--MD5=[1e488b511b3b9f8233642f988e2c98d9]
link PersistentObjectsImpl to PersistentObjects--><g id="link_PersistentObjectsImpl_PersistentObjects"><path codeLine="56" d="M553.05,120.26 C535.12,134.87 515.29,151.01 495.68,166.99 " fill="none" id="PersistentObjectsImpl-to-PersistentObjects" style="stroke:#181818;stroke-width:1.0;"/><polygon fill="none" points="499.96,172.54,480.03,179.74,491.11,161.68,499.96,172.54" style="stroke:#181818;stroke-width:1.0;"/></g><!--MD5=[a9ff20c4271d7b8b2e2a495e798f3bb0]
link PersistentObjectsImpl to Session--><g id="link_PersistentObjectsImpl_Session"><path codeLine="57" d="M621.5,120.26 C621.5,142.3 621.5,167.84 621.5,191.02 " fill="none" id="PersistentObjectsImpl-to-Session" style="stroke:#181818;stroke-width:1.0;"/><polygon fill="#181818" points="621.5,196.24,625.5,187.24,621.5,191.24,617.5,187.24,621.5,196.24" style="stroke:#181818;stroke-width:1.0;"/></g><!--MD5=[63c3026e3cbc2ddb87824601d03f09b1]
link PersistentObjectsImpl to ClassMapper--><g id="link_PersistentObjectsImpl_ClassMapper"><path codeLine="58" d="M678.54,120.26 C709.81,150.83 748,188.16 777.04,216.54 " fill="none" id="PersistentObjectsImpl-to-ClassMapper" style="stroke:#181818;stroke-width:1.0;"/><polygon fill="#181818" points="780.9,220.31,777.2535,211.161,777.322,216.8175,771.6655,216.8859,780.9,220.31" style="stroke:#181818;stroke-width:1.0;"/></g><!--MD5=[ec644e3f9b56039d2231ce9f1b70262f]
link PersistentObjectsImpl to ClassRepository--><g id="link_PersistentObjectsImpl_ClassRepository"><path codeLine="59" d="M753.62,103.79 C807.97,122.81 870.29,148.44 922.5,180 C939.45,190.25 956.24,203.78 970.69,216.79 " fill="none" id="PersistentObjectsImpl-to-ClassRepository" style="stroke:#181818;stroke-width:1.0;"/><polygon fill="#181818" points="974.71,220.44,970.7516,211.4216,971.0142,217.0724,965.3634,217.3349,974.71,220.44" style="stroke:#181818;stroke-width:1.0;"/></g><!--MD5=[5423b39d70959643d3092980b7e239f5]
link PersistentObjectsImpl to SessionListener--><g id="link_PersistentObjectsImpl_SessionListener"><path codeLine="60" d="M489.46,95.21 C414.86,114.87 320.93,143.54 241.5,180 C227.85,186.26 213.93,193.79 200.55,201.69 " fill="none" id="PersistentObjectsImpl-to-SessionListener" style="stroke:#181818;stroke-width:1.0;"/><polygon fill="#181818" points="196.04,204.38,205.8183,203.2035,200.3338,201.8181,201.7192,196.3335,196.04,204.38" style="stroke:#181818;stroke-width:1.0;"/><text fill="#000000" font-family="sans-serif" font-size="13" lengthAdjust="spacing" textLength="8" x="473.5952" y="93.675">1</text><text fill="#000000" font-family="sans-serif" font-size="13" lengthAdjust="spacing" textLength="10" x="195.2464" y="193.6289">N</text></g><!--MD5=[544c09caddee7fec75f927e693ea4c22]
link Session to SessionStatus--><g id="link_Session_SessionStatus"><path codeLine="61" d="M621.5,325.67 C621.5,349.66 621.5,376.1 621.5,396.74 " fill="none" id="Session-to-SessionStatus" style="stroke:#181818;stroke-width:1.0;"/><polygon fill="#181818" points="621.5,401.85,625.5,392.85,621.5,396.85,617.5,392.85,621.5,401.85" style="stroke:#181818;stroke-width:1.0;"/></g><!--MD5=[ea545ccbfe585ff9eacc2ab0149a3d33]
link ClassRepository to CrudRepository--><g id="link_ClassRepository_CrudRepository"><path codeLine="62" d="M1013.5,301.66 C1013.5,325.48 1013.5,356.03 1013.5,381.68 " fill="none" id="ClassRepository-to-CrudRepository" style="stroke:#181818;stroke-width:1.0;"/><polygon fill="none" points="1020.5,381.81,1013.5,401.81,1006.5,381.81,1020.5,381.81" style="stroke:#181818;stroke-width:1.0;"/></g><!--MD5=[124b0ba7710a1c26b89e8a3767788674]
@startuml
interface PersistentObjects {
  void creteSession(long, long)
  void store(long, Object)
  Object load(long, Class<?>)
  Object remove(long, Class<?>)
  void destroySession(long)
  void addListener(SessionListener)
  void removeListener(Listener)
}

class PersistentObjectsImpl {
  ListenersList: List<SessionListener>
  Mapper: ClassMapper
  Session: Session
  Repository: ClassRepository
}

interface SessionListener {
  void sessionClosed(long)
  void sessionStillClosed(long)
  void sessionOpened(long)
  void sessionStillOpened(long)
}

class LoggerSessionListener {
  Logger: Logger
}

class Session {
  Key: String
  Timeout: int
  Status: SessionStatus
  void close()
  void open()
}

enum SessionStatus{
  OPEN, CLOSED  
}

class ClassMapper {
  toObject(String, Class)
  toJson(Object)
}

class ClassRepository {
  findByKey(String)
  deleteByKey(String)
}

interface CrudRepository{
  save(Entity)
}

LoggerSessionListener - -|> SessionListener
PersistentObjectsImpl - -|> PersistentObjects
PersistentObjectsImpl - -> Session
PersistentObjectsImpl - -> ClassMapper
PersistentObjectsImpl - -> ClassRepository
PersistentObjectsImpl "1" - -> "N" SessionListener
Session - -> SessionStatus
ClassRepository - -|> CrudRepository
@enduml

PlantUML version 1.2022.7(Mon Aug 22 17:01:30 UTC 2022)
(GPL source distribution)
Java Runtime: OpenJDK Runtime Environment
JVM: OpenJDK 64-Bit Server VM
Default Encoding: UTF-8
Language: en
Country: null
--></g></svg>